<?xml version="1.0"?>
<!-- Generated by SVGo -->
<svg width="1024" height="800"
     xmlns="http://www.w3.org/2000/svg" 
     xmlns:xlink="http://www.w3.org/1999/xlink">
<rect x="0" y="0" width="1024" height="800" style="fill:white"/>
<g style="font-family:Calibri,sans-serif;font-size:18px">
<title>Bullet Graph</title>
<text x="300" y="50" style="font-style:italic;font-size:150%;text-anchor:start">Average Player AIRSHOTS</text>
<g style="text-anchor:end;fill:red">
<text x="290" y="80" style="fill:black;baseline-shift:-25%">[R]eason MikeyA @i55AF20</text>
<rect x="300" y="70" width="60" height="20" rx="0" ry="0" style="fill:blue;fill-opacity:1.00"/>
<text x="369" y="80" style="fill-opacity:1;font-style:italic;font-size:75%;text-anchor:start;baseline-shift:-25%;fill:black">9</text>
<text x="290" y="105" style="fill:black;baseline-shift:-25%">FROYO b4nny | i55.tf</text>
<rect x="300" y="95" width="53" height="20" rx="0" ry="0" style="fill:blue;fill-opacity:1.00"/>
<text x="362" y="105" style="fill-opacity:1;font-style:italic;font-size:75%;text-anchor:start;baseline-shift:-25%;fill:black">8</text>
<text x="290" y="130" style="fill:black;baseline-shift:-25%">[R]eason kaptain @ i55 AF 23</text>
<rect x="300" y="120" width="53" height="20" rx="0" ry="0" style="fill:blue;fill-opacity:1.00"/>
<text x="362" y="130" style="fill-opacity:1;font-style:italic;font-size:75%;text-anchor:start;baseline-shift:-25%;fill:black">8</text>
<text x="290" y="155" style="fill:black;baseline-shift:-25%">nR TEK36@i55</text>
<rect x="300" y="145" width="47" height="20" rx="0" ry="0" style="fill:blue;fill-opacity:1.00"/>
<text x="356" y="155" style="fill-opacity:1;font-style:italic;font-size:75%;text-anchor:start;baseline-shift:-25%;fill:black">7</text>
<text x="290" y="180" style="fill:black;baseline-shift:-25%">Ascent rando</text>
<rect x="300" y="170" width="40" height="20" rx="0" ry="0" style="fill:blue;fill-opacity:1.00"/>
<text x="349" y="180" style="fill-opacity:1;font-style:italic;font-size:75%;text-anchor:start;baseline-shift:-25%;fill:black">6</text>
<text x="290" y="205" style="fill:black;baseline-shift:-25%">FROYO blaze</text>
<rect x="300" y="195" width="40" height="20" rx="0" ry="0" style="fill:blue;fill-opacity:1.00"/>
<text x="349" y="205" style="fill-opacity:1;font-style:italic;font-size:75%;text-anchor:start;baseline-shift:-25%;fill:black">6</text>
<text x="290" y="230" style="fill:black;baseline-shift:-25%">Ascent SaVeyourRrRr!!</text>
<rect x="300" y="220" width="33" height="20" rx="0" ry="0" style="fill:blue;fill-opacity:1.00"/>
<text x="342" y="230" style="fill-opacity:1;font-style:italic;font-size:75%;text-anchor:start;baseline-shift:-25%;fill:black">5</text>
<text x="290" y="255" style="fill:black;baseline-shift:-25%">nR Zebbosai</text>
<rect x="300" y="245" width="26" height="20" rx="0" ry="0" style="fill:blue;fill-opacity:1.00"/>
<text x="335" y="255" style="fill-opacity:1;font-style:italic;font-size:75%;text-anchor:start;baseline-shift:-25%;fill:black">4</text>
<text x="290" y="280" style="fill:black;baseline-shift:-25%">[R]eason kaidus</text>
<rect x="300" y="270" width="26" height="20" rx="0" ry="0" style="fill:blue;fill-opacity:1.00"/>
<text x="335" y="280" style="fill-opacity:1;font-style:italic;font-size:75%;text-anchor:start;baseline-shift:-25%;fill:black">4</text>
<text x="290" y="305" style="fill:black;baseline-shift:-25%">nR ryb</text>
<rect x="300" y="295" width="20" height="20" rx="0" ry="0" style="fill:blue;fill-opacity:1.00"/>
<text x="329" y="305" style="fill-opacity:1;font-style:italic;font-size:75%;text-anchor:start;baseline-shift:-25%;fill:black">3</text>
<text x="290" y="330" style="fill:black;baseline-shift:-25%">FROYO duwatna</text>
<rect x="300" y="320" width="6" height="20" rx="0" ry="0" style="fill:blue;fill-opacity:1.00"/>
<text x="315" y="330" style="fill-opacity:1;font-style:italic;font-size:75%;text-anchor:start;baseline-shift:-25%;fill:black">1</text>
<text x="290" y="355" style="fill:black;baseline-shift:-25%">Ascent Bdonski</text>
<rect x="300" y="345" width="6" height="20" rx="0" ry="0" style="fill:blue;fill-opacity:1.00"/>
<text x="315" y="355" style="fill-opacity:1;font-style:italic;font-size:75%;text-anchor:start;baseline-shift:-25%;fill:black">1</text>
</g>
<g style="text-anchor:middle;font-size:75%">
<text x="300" y="393" >0</text>
<text x="434" y="393" >20</text>
<text x="569" y="393" >40</text>
<text x="704" y="393" >60</text>
<text x="839" y="393" >80</text>
<text x="974" y="393" >100</text>
</g>
</g>
</svg>
