<?xml version="1.0"?>
<!-- Generated by SVGo -->
<svg width="1024" height="800"
     xmlns="http://www.w3.org/2000/svg" 
     xmlns:xlink="http://www.w3.org/1999/xlink">
<rect x="0" y="0" width="1024" height="800" style="fill:white"/>
<g style="font-family:Calibri,sans-serif;font-size:18px">
<title>Bullet Graph</title>
<text x="300" y="50" style="font-style:italic;font-size:150%;text-anchor:start">Average Player Damage Per Minute</text>
<g style="text-anchor:end;fill:red">
<text x="290" y="80" style="fill:black;baseline-shift:-25%">FROYO b4nny | i55.tf</text>
<rect x="300" y="70" width="594" height="20" rx="0" ry="0" style="fill:blue;fill-opacity:1.00"/>
<text x="903" y="80" style="fill-opacity:1;font-style:italic;font-size:75%;text-anchor:start;baseline-shift:-25%;fill:black">441</text>
<text x="290" y="105" style="fill:black;baseline-shift:-25%">nR TEK36@i55</text>
<rect x="300" y="95" width="451" height="20" rx="0" ry="0" style="fill:blue;fill-opacity:1.00"/>
<text x="760" y="105" style="fill-opacity:1;font-style:italic;font-size:75%;text-anchor:start;baseline-shift:-25%;fill:black">335</text>
<text x="290" y="130" style="fill:black;baseline-shift:-25%">[R]eason MikeyA @i55AF20</text>
<rect x="300" y="120" width="420" height="20" rx="0" ry="0" style="fill:blue;fill-opacity:1.00"/>
<text x="729" y="130" style="fill-opacity:1;font-style:italic;font-size:75%;text-anchor:start;baseline-shift:-25%;fill:black">312</text>
<text x="290" y="155" style="fill:black;baseline-shift:-25%">Ascent rando</text>
<rect x="300" y="145" width="400" height="20" rx="0" ry="0" style="fill:blue;fill-opacity:1.00"/>
<text x="709" y="155" style="fill-opacity:1;font-style:italic;font-size:75%;text-anchor:start;baseline-shift:-25%;fill:black">297</text>
<text x="290" y="180" style="fill:black;baseline-shift:-25%">nR Zebbosai</text>
<rect x="300" y="170" width="381" height="20" rx="0" ry="0" style="fill:blue;fill-opacity:1.00"/>
<text x="690" y="180" style="fill-opacity:1;font-style:italic;font-size:75%;text-anchor:start;baseline-shift:-25%;fill:black">283</text>
<text x="290" y="205" style="fill:black;baseline-shift:-25%">nR Starkie</text>
<rect x="300" y="195" width="380" height="20" rx="0" ry="0" style="fill:blue;fill-opacity:1.00"/>
<text x="689" y="205" style="fill-opacity:1;font-style:italic;font-size:75%;text-anchor:start;baseline-shift:-25%;fill:black">282</text>
<text x="290" y="230" style="fill:black;baseline-shift:-25%">FROYO duwatna</text>
<rect x="300" y="220" width="377" height="20" rx="0" ry="0" style="fill:blue;fill-opacity:1.00"/>
<text x="686" y="230" style="fill-opacity:1;font-style:italic;font-size:75%;text-anchor:start;baseline-shift:-25%;fill:black">280</text>
<text x="290" y="255" style="fill:black;baseline-shift:-25%">Ascent Shrugger</text>
<rect x="300" y="245" width="372" height="20" rx="0" ry="0" style="fill:blue;fill-opacity:1.00"/>
<text x="681" y="255" style="fill-opacity:1;font-style:italic;font-size:75%;text-anchor:start;baseline-shift:-25%;fill:black">276</text>
<text x="290" y="280" style="fill:black;baseline-shift:-25%">nR ryb</text>
<rect x="300" y="270" width="357" height="20" rx="0" ry="0" style="fill:blue;fill-opacity:1.00"/>
<text x="666" y="280" style="fill-opacity:1;font-style:italic;font-size:75%;text-anchor:start;baseline-shift:-25%;fill:black">265</text>
<text x="290" y="305" style="fill:black;baseline-shift:-25%">Ascent Bdonski</text>
<rect x="300" y="295" width="351" height="20" rx="0" ry="0" style="fill:blue;fill-opacity:1.00"/>
<text x="660" y="305" style="fill-opacity:1;font-style:italic;font-size:75%;text-anchor:start;baseline-shift:-25%;fill:black">261</text>
<text x="290" y="330" style="fill:black;baseline-shift:-25%">FROYO cw</text>
<rect x="300" y="320" width="351" height="20" rx="0" ry="0" style="fill:blue;fill-opacity:1.00"/>
<text x="660" y="330" style="fill-opacity:1;font-style:italic;font-size:75%;text-anchor:start;baseline-shift:-25%;fill:black">261</text>
<text x="290" y="355" style="fill:black;baseline-shift:-25%">FROYO blaze</text>
<rect x="300" y="345" width="343" height="20" rx="0" ry="0" style="fill:blue;fill-opacity:1.00"/>
<text x="652" y="355" style="fill-opacity:1;font-style:italic;font-size:75%;text-anchor:start;baseline-shift:-25%;fill:black">255</text>
<text x="290" y="380" style="fill:black;baseline-shift:-25%">nR Flippy @ i55</text>
<rect x="300" y="370" width="337" height="20" rx="0" ry="0" style="fill:blue;fill-opacity:1.00"/>
<text x="646" y="380" style="fill-opacity:1;font-style:italic;font-size:75%;text-anchor:start;baseline-shift:-25%;fill:black">250</text>
<text x="290" y="405" style="fill:black;baseline-shift:-25%">[R]eason kaptain @ i55 AF 23</text>
<rect x="300" y="395" width="322" height="20" rx="0" ry="0" style="fill:blue;fill-opacity:1.00"/>
<text x="631" y="405" style="fill-opacity:1;font-style:italic;font-size:75%;text-anchor:start;baseline-shift:-25%;fill:black">239</text>
<text x="290" y="430" style="fill:black;baseline-shift:-25%">Ascent SaVeyourRrRr!!</text>
<rect x="300" y="420" width="300" height="20" rx="0" ry="0" style="fill:blue;fill-opacity:1.00"/>
<text x="609" y="430" style="fill-opacity:1;font-style:italic;font-size:75%;text-anchor:start;baseline-shift:-25%;fill:black">223</text>
<text x="290" y="455" style="fill:black;baseline-shift:-25%">[R]eason kaidus</text>
<rect x="300" y="445" width="281" height="20" rx="0" ry="0" style="fill:blue;fill-opacity:1.00"/>
<text x="590" y="455" style="fill-opacity:1;font-style:italic;font-size:75%;text-anchor:start;baseline-shift:-25%;fill:black">209</text>
<text x="290" y="480" style="fill:black;baseline-shift:-25%">FROYO ash</text>
<rect x="300" y="470" width="279" height="20" rx="0" ry="0" style="fill:blue;fill-opacity:1.00"/>
<text x="588" y="480" style="fill-opacity:1;font-style:italic;font-size:75%;text-anchor:start;baseline-shift:-25%;fill:black">207</text>
<text x="290" y="505" style="fill:black;baseline-shift:-25%">[R]eason Forsak3n</text>
<rect x="300" y="495" width="268" height="20" rx="0" ry="0" style="fill:blue;fill-opacity:1.00"/>
<text x="577" y="505" style="fill-opacity:1;font-style:italic;font-size:75%;text-anchor:start;baseline-shift:-25%;fill:black">199</text>
<text x="290" y="530" style="fill:black;baseline-shift:-25%">Ascent enigma</text>
<rect x="300" y="520" width="264" height="20" rx="0" ry="0" style="fill:blue;fill-opacity:1.00"/>
<text x="573" y="530" style="fill-opacity:1;font-style:italic;font-size:75%;text-anchor:start;baseline-shift:-25%;fill:black">196</text>
<text x="290" y="555" style="fill:black;baseline-shift:-25%">[R]eason Hafficool * Hallow</text>
<rect x="300" y="545" width="253" height="20" rx="0" ry="0" style="fill:blue;fill-opacity:1.00"/>
<text x="562" y="555" style="fill-opacity:1;font-style:italic;font-size:75%;text-anchor:start;baseline-shift:-25%;fill:black">188</text>
<text x="290" y="580" style="fill:black;baseline-shift:-25%">nR Bulle</text>
<rect x="300" y="570" width="24" height="20" rx="0" ry="0" style="fill:blue;fill-opacity:1.00"/>
<text x="333" y="580" style="fill-opacity:1;font-style:italic;font-size:75%;text-anchor:start;baseline-shift:-25%;fill:black">18</text>
<text x="290" y="605" style="fill:black;baseline-shift:-25%">FROYO shade</text>
<rect x="300" y="595" width="13" height="20" rx="0" ry="0" style="fill:blue;fill-opacity:1.00"/>
<text x="322" y="605" style="fill-opacity:1;font-style:italic;font-size:75%;text-anchor:start;baseline-shift:-25%;fill:black">10</text>
</g>
<g style="text-anchor:middle;font-size:75%">
<text x="300" y="643" >0</text>
<text x="434" y="643" >100</text>
<text x="569" y="643" >200</text>
<text x="704" y="643" >300</text>
<text x="839" y="643" >400</text>
<text x="974" y="643" >500</text>
</g>
</g>
</svg>
