<?xml version="1.0"?>
<!-- Generated by SVGo -->
<svg width="1024" height="800"
     xmlns="http://www.w3.org/2000/svg" 
     xmlns:xlink="http://www.w3.org/1999/xlink">
<rect x="0" y="0" width="1024" height="800" style="fill:white"/>
<g style="font-family:Calibri,sans-serif;font-size:18px">
<title>Bullet Graph</title>
<text x="300" y="50" style="font-style:italic;font-size:150%;text-anchor:start">Average Scout Damage</text>
<g style="text-anchor:end;fill:red">
<text x="290" y="80" style="fill:black;baseline-shift:-25%">nR Starkie</text>
<rect x="300" y="70" width="665" height="20" rx="0" ry="0" style="fill:blue;fill-opacity:1.00"/>
<text x="974" y="80" style="fill-opacity:1;font-style:italic;font-size:75%;text-anchor:start;baseline-shift:-25%;fill:black">6817</text>
<text x="290" y="105" style="fill:black;baseline-shift:-25%">Ascent Shrugger</text>
<rect x="300" y="95" width="642" height="20" rx="0" ry="0" style="fill:blue;fill-opacity:1.00"/>
<text x="951" y="105" style="fill-opacity:1;font-style:italic;font-size:75%;text-anchor:start;baseline-shift:-25%;fill:black">6576</text>
<text x="290" y="130" style="fill:black;baseline-shift:-25%">FROYO cw</text>
<rect x="300" y="120" width="562" height="20" rx="0" ry="0" style="fill:blue;fill-opacity:1.00"/>
<text x="871" y="130" style="fill-opacity:1;font-style:italic;font-size:75%;text-anchor:start;baseline-shift:-25%;fill:black">5757</text>
<text x="290" y="155" style="fill:black;baseline-shift:-25%">FROYO ash</text>
<rect x="300" y="145" width="448" height="20" rx="0" ry="0" style="fill:blue;fill-opacity:1.00"/>
<text x="757" y="155" style="fill-opacity:1;font-style:italic;font-size:75%;text-anchor:start;baseline-shift:-25%;fill:black">4594</text>
<text x="290" y="180" style="fill:black;baseline-shift:-25%">Ascent enigma</text>
<rect x="300" y="170" width="394" height="20" rx="0" ry="0" style="fill:blue;fill-opacity:1.00"/>
<text x="703" y="180" style="fill-opacity:1;font-style:italic;font-size:75%;text-anchor:start;baseline-shift:-25%;fill:black">4039</text>
<text x="290" y="205" style="fill:black;baseline-shift:-25%">[R]eason Hafficool * Hallow</text>
<rect x="300" y="195" width="374" height="20" rx="0" ry="0" style="fill:blue;fill-opacity:1.00"/>
<text x="683" y="205" style="fill-opacity:1;font-style:italic;font-size:75%;text-anchor:start;baseline-shift:-25%;fill:black">3831</text>
<text x="290" y="230" style="fill:black;baseline-shift:-25%">nR Zebbosai</text>
<rect x="300" y="220" width="324" height="20" rx="0" ry="0" style="fill:blue;fill-opacity:1.00"/>
<text x="633" y="230" style="fill-opacity:1;font-style:italic;font-size:75%;text-anchor:start;baseline-shift:-25%;fill:black">3322</text>
<text x="290" y="255" style="fill:black;baseline-shift:-25%">[R]eason Forsak3n</text>
<rect x="300" y="245" width="312" height="20" rx="0" ry="0" style="fill:blue;fill-opacity:1.00"/>
<text x="621" y="255" style="fill-opacity:1;font-style:italic;font-size:75%;text-anchor:start;baseline-shift:-25%;fill:black">3200</text>
<text x="290" y="280" style="fill:black;baseline-shift:-25%">nR Flippy @ i55</text>
<rect x="300" y="270" width="274" height="20" rx="0" ry="0" style="fill:blue;fill-opacity:1.00"/>
<text x="583" y="280" style="fill-opacity:1;font-style:italic;font-size:75%;text-anchor:start;baseline-shift:-25%;fill:black">2811</text>
</g>
<g style="text-anchor:middle;font-size:75%">
<text x="300" y="318" >0</text>
<text x="434" y="318" >1380</text>
<text x="569" y="318" >2760</text>
<text x="704" y="318" >4140</text>
<text x="839" y="318" >5520</text>
<text x="974" y="318" >6900</text>
</g>
<text x="300" y="365" style="font-style:italic;font-size:150%;text-anchor:start">Average Soldier Damage</text>
<g style="text-anchor:end;fill:red">
<text x="290" y="395" style="fill:black;baseline-shift:-25%">FROYO b4nny | i55.tf</text>
<rect x="300" y="385" width="673" height="20" rx="0" ry="0" style="fill:blue;fill-opacity:1.00"/>
<text x="982" y="395" style="fill-opacity:1;font-style:italic;font-size:75%;text-anchor:start;baseline-shift:-25%;fill:black">9787</text>
<text x="290" y="420" style="fill:black;baseline-shift:-25%">nR TEK36@i55</text>
<rect x="300" y="410" width="558" height="20" rx="0" ry="0" style="fill:blue;fill-opacity:1.00"/>
<text x="867" y="420" style="fill-opacity:1;font-style:italic;font-size:75%;text-anchor:start;baseline-shift:-25%;fill:black">8114</text>
<text x="290" y="445" style="fill:black;baseline-shift:-25%">Ascent rando</text>
<rect x="300" y="435" width="494" height="20" rx="0" ry="0" style="fill:blue;fill-opacity:1.00"/>
<text x="803" y="445" style="fill-opacity:1;font-style:italic;font-size:75%;text-anchor:start;baseline-shift:-25%;fill:black">7185</text>
<text x="290" y="470" style="fill:black;baseline-shift:-25%">[R]eason MikeyA @i55AF20</text>
<rect x="300" y="460" width="476" height="20" rx="0" ry="0" style="fill:blue;fill-opacity:1.00"/>
<text x="785" y="470" style="fill-opacity:1;font-style:italic;font-size:75%;text-anchor:start;baseline-shift:-25%;fill:black">6931</text>
<text x="290" y="495" style="fill:black;baseline-shift:-25%">FROYO blaze</text>
<rect x="300" y="485" width="390" height="20" rx="0" ry="0" style="fill:blue;fill-opacity:1.00"/>
<text x="699" y="495" style="fill-opacity:1;font-style:italic;font-size:75%;text-anchor:start;baseline-shift:-25%;fill:black">5674</text>
<text x="290" y="520" style="fill:black;baseline-shift:-25%">Ascent SaVeyourRrRr!!</text>
<rect x="300" y="510" width="371" height="20" rx="0" ry="0" style="fill:blue;fill-opacity:1.00"/>
<text x="680" y="520" style="fill-opacity:1;font-style:italic;font-size:75%;text-anchor:start;baseline-shift:-25%;fill:black">5401</text>
<text x="290" y="545" style="fill:black;baseline-shift:-25%">[R]eason kaptain @ i55 AF 23</text>
<rect x="300" y="535" width="364" height="20" rx="0" ry="0" style="fill:blue;fill-opacity:1.00"/>
<text x="673" y="545" style="fill-opacity:1;font-style:italic;font-size:75%;text-anchor:start;baseline-shift:-25%;fill:black">5299</text>
<text x="290" y="570" style="fill:black;baseline-shift:-25%">nR Zebbosai</text>
<rect x="300" y="560" width="241" height="20" rx="0" ry="0" style="fill:blue;fill-opacity:1.00"/>
<text x="550" y="570" style="fill-opacity:1;font-style:italic;font-size:75%;text-anchor:start;baseline-shift:-25%;fill:black">3516</text>
</g>
<g style="text-anchor:middle;font-size:75%">
<text x="300" y="608" >0</text>
<text x="434" y="608" >1960</text>
<text x="569" y="608" >3920</text>
<text x="704" y="608" >5880</text>
<text x="839" y="608" >7840</text>
<text x="974" y="608" >9800</text>
</g>
<text x="300" y="655" style="font-style:italic;font-size:150%;text-anchor:start">Average Demoman Damage</text>
<g style="text-anchor:end;fill:red">
<text x="290" y="685" style="fill:black;baseline-shift:-25%">nR ryb</text>
<rect x="300" y="675" width="664" height="20" rx="0" ry="0" style="fill:blue;fill-opacity:1.00"/>
<text x="973" y="685" style="fill-opacity:1;font-style:italic;font-size:75%;text-anchor:start;baseline-shift:-25%;fill:black">6412</text>
<text x="290" y="710" style="fill:black;baseline-shift:-25%">Ascent Bdonski</text>
<rect x="300" y="700" width="654" height="20" rx="0" ry="0" style="fill:blue;fill-opacity:1.00"/>
<text x="963" y="710" style="fill-opacity:1;font-style:italic;font-size:75%;text-anchor:start;baseline-shift:-25%;fill:black">6316</text>
<text x="290" y="735" style="fill:black;baseline-shift:-25%">FROYO duwatna</text>
<rect x="300" y="725" width="643" height="20" rx="0" ry="0" style="fill:blue;fill-opacity:1.00"/>
<text x="952" y="735" style="fill-opacity:1;font-style:italic;font-size:75%;text-anchor:start;baseline-shift:-25%;fill:black">6207</text>
<text x="290" y="760" style="fill:black;baseline-shift:-25%">[R]eason kaidus</text>
<rect x="300" y="750" width="480" height="20" rx="0" ry="0" style="fill:blue;fill-opacity:1.00"/>
<text x="789" y="760" style="fill-opacity:1;font-style:italic;font-size:75%;text-anchor:start;baseline-shift:-25%;fill:black">4638</text>
</g>
<g style="text-anchor:middle;font-size:75%">
<text x="300" y="798" >0</text>
<text x="434" y="798" >1300</text>
<text x="569" y="798" >2600</text>
<text x="704" y="798" >3900</text>
<text x="839" y="798" >5200</text>
<text x="974" y="798" >6500</text>
</g>
<text x="300" y="845" style="font-style:italic;font-size:150%;text-anchor:start">Average Damage Dealt per Heal</text>
<g style="text-anchor:end;fill:red">
<text x="290" y="875" style="fill:black;baseline-shift:-25%">Ascent Shrugger</text>
<rect x="300" y="865" width="806" height="20" rx="0" ry="0" style="fill:blue;fill-opacity:1.00"/>
<text x="1115" y="875" style="fill-opacity:1;font-style:italic;font-size:75%;text-anchor:start;baseline-shift:-25%;fill:black">2.392691</text>
<text x="290" y="900" style="fill:black;baseline-shift:-25%">[R]eason Forsak3n</text>
<rect x="300" y="890" width="698" height="20" rx="0" ry="0" style="fill:blue;fill-opacity:1.00"/>
<text x="1007" y="900" style="fill-opacity:1;font-style:italic;font-size:75%;text-anchor:start;baseline-shift:-25%;fill:black">2.072702</text>
<text x="290" y="925" style="fill:black;baseline-shift:-25%">nR Starkie</text>
<rect x="300" y="915" width="665" height="20" rx="0" ry="0" style="fill:blue;fill-opacity:1.00"/>
<text x="974" y="925" style="fill-opacity:1;font-style:italic;font-size:75%;text-anchor:start;baseline-shift:-25%;fill:black">1.975942</text>
<text x="290" y="950" style="fill:black;baseline-shift:-25%">Ascent enigma</text>
<rect x="300" y="940" width="630" height="20" rx="0" ry="0" style="fill:blue;fill-opacity:1.00"/>
<text x="939" y="950" style="fill-opacity:1;font-style:italic;font-size:75%;text-anchor:start;baseline-shift:-25%;fill:black">1.871361</text>
<text x="290" y="975" style="fill:black;baseline-shift:-25%">FROYO blaze</text>
<rect x="300" y="965" width="596" height="20" rx="0" ry="0" style="fill:blue;fill-opacity:1.00"/>
<text x="905" y="975" style="fill-opacity:1;font-style:italic;font-size:75%;text-anchor:start;baseline-shift:-25%;fill:black">1.768703</text>
<text x="290" y="1000" style="fill:black;baseline-shift:-25%">[R]eason MikeyA @i55AF20</text>
<rect x="300" y="990" width="593" height="20" rx="0" ry="0" style="fill:blue;fill-opacity:1.00"/>
<text x="902" y="1000" style="fill-opacity:1;font-style:italic;font-size:75%;text-anchor:start;baseline-shift:-25%;fill:black">1.760925</text>
<text x="290" y="1025" style="fill:black;baseline-shift:-25%">nR Zebbosai</text>
<rect x="300" y="1015" width="568" height="20" rx="0" ry="0" style="fill:blue;fill-opacity:1.00"/>
<text x="877" y="1025" style="fill-opacity:1;font-style:italic;font-size:75%;text-anchor:start;baseline-shift:-25%;fill:black">1.685897</text>
<text x="290" y="1050" style="fill:black;baseline-shift:-25%">FROYO cw</text>
<rect x="300" y="1040" width="567" height="20" rx="0" ry="0" style="fill:blue;fill-opacity:1.00"/>
<text x="876" y="1050" style="fill-opacity:1;font-style:italic;font-size:75%;text-anchor:start;baseline-shift:-25%;fill:black">1.682701</text>
<text x="290" y="1075" style="fill:black;baseline-shift:-25%">nR Flippy @ i55</text>
<rect x="300" y="1065" width="516" height="20" rx="0" ry="0" style="fill:blue;fill-opacity:1.00"/>
<text x="825" y="1075" style="fill-opacity:1;font-style:italic;font-size:75%;text-anchor:start;baseline-shift:-25%;fill:black">1.531511</text>
<text x="290" y="1100" style="fill:black;baseline-shift:-25%">Ascent SaVeyourRrRr!!</text>
<rect x="300" y="1090" width="475" height="20" rx="0" ry="0" style="fill:blue;fill-opacity:1.00"/>
<text x="784" y="1100" style="fill-opacity:1;font-style:italic;font-size:75%;text-anchor:start;baseline-shift:-25%;fill:black">1.409815</text>
<text x="290" y="1125" style="fill:black;baseline-shift:-25%">FROYO b4nny | i55.tf</text>
<rect x="300" y="1115" width="409" height="20" rx="0" ry="0" style="fill:blue;fill-opacity:1.00"/>
<text x="718" y="1125" style="fill-opacity:1;font-style:italic;font-size:75%;text-anchor:start;baseline-shift:-25%;fill:black">1.213967</text>
<text x="290" y="1150" style="fill:black;baseline-shift:-25%">nR TEK36@i55</text>
<rect x="300" y="1140" width="381" height="20" rx="0" ry="0" style="fill:blue;fill-opacity:1.00"/>
<text x="690" y="1150" style="fill-opacity:1;font-style:italic;font-size:75%;text-anchor:start;baseline-shift:-25%;fill:black">1.133082</text>
<text x="290" y="1175" style="fill:black;baseline-shift:-25%">Ascent Bdonski</text>
<rect x="300" y="1165" width="375" height="20" rx="0" ry="0" style="fill:blue;fill-opacity:1.00"/>
<text x="684" y="1175" style="fill-opacity:1;font-style:italic;font-size:75%;text-anchor:start;baseline-shift:-25%;fill:black">1.114916</text>
<text x="290" y="1200" style="fill:black;baseline-shift:-25%">FROYO duwatna</text>
<rect x="300" y="1190" width="368" height="20" rx="0" ry="0" style="fill:blue;fill-opacity:1.00"/>
<text x="677" y="1200" style="fill-opacity:1;font-style:italic;font-size:75%;text-anchor:start;baseline-shift:-25%;fill:black">1.092397</text>
<text x="290" y="1225" style="fill:black;baseline-shift:-25%">nR ryb</text>
<rect x="300" y="1215" width="340" height="20" rx="0" ry="0" style="fill:blue;fill-opacity:1.00"/>
<text x="649" y="1225" style="fill-opacity:1;font-style:italic;font-size:75%;text-anchor:start;baseline-shift:-25%;fill:black">1.011835</text>
<text x="290" y="1250" style="fill:black;baseline-shift:-25%">[R]eason Hafficool * Hallow</text>
<rect x="300" y="1240" width="330" height="20" rx="0" ry="0" style="fill:blue;fill-opacity:1.00"/>
<text x="639" y="1250" style="fill-opacity:1;font-style:italic;font-size:75%;text-anchor:start;baseline-shift:-25%;fill:black">0.979644</text>
<text x="290" y="1275" style="fill:black;baseline-shift:-25%">FROYO ash</text>
<rect x="300" y="1265" width="315" height="20" rx="0" ry="0" style="fill:blue;fill-opacity:1.00"/>
<text x="624" y="1275" style="fill-opacity:1;font-style:italic;font-size:75%;text-anchor:start;baseline-shift:-25%;fill:black">0.935642</text>
<text x="290" y="1300" style="fill:black;baseline-shift:-25%">[R]eason kaidus</text>
<rect x="300" y="1290" width="260" height="20" rx="0" ry="0" style="fill:blue;fill-opacity:1.00"/>
<text x="569" y="1300" style="fill-opacity:1;font-style:italic;font-size:75%;text-anchor:start;baseline-shift:-25%;fill:black">0.773645</text>
<text x="290" y="1325" style="fill:black;baseline-shift:-25%">[R]eason kaptain @ i55 AF 23</text>
<rect x="300" y="1315" width="250" height="20" rx="0" ry="0" style="fill:blue;fill-opacity:1.00"/>
<text x="559" y="1325" style="fill-opacity:1;font-style:italic;font-size:75%;text-anchor:start;baseline-shift:-25%;fill:black">0.743511</text>
<text x="290" y="1350" style="fill:black;baseline-shift:-25%">Ascent rando</text>
<rect x="300" y="1340" width="233" height="20" rx="0" ry="0" style="fill:blue;fill-opacity:1.00"/>
<text x="542" y="1350" style="fill-opacity:1;font-style:italic;font-size:75%;text-anchor:start;baseline-shift:-25%;fill:black">0.691797</text>
</g>
<g style="text-anchor:middle;font-size:75%">
<text x="300" y="1388" >0.0</text>
<text x="434" y="1388" >0.4</text>
<text x="569" y="1388" >0.8</text>
<text x="704" y="1388" >1.2</text>
<text x="839" y="1388" >1.6</text>
<text x="974" y="1388" >2.0</text>
</g>
</g>
</svg>
