<?xml version="1.0"?>
<!-- Generated by SVGo -->
<svg width="1024" height="800"
     xmlns="http://www.w3.org/2000/svg" 
     xmlns:xlink="http://www.w3.org/1999/xlink">
<rect x="0" y="0" width="1024" height="800" style="fill:white"/>
<g style="font-family:Calibri,sans-serif;font-size:18px">
<title>Bullet Graph</title>
<text x="300" y="50" style="font-style:italic;font-size:150%;text-anchor:start">Average Soldier Kills</text>
<g style="text-anchor:end;fill:red">
<text x="290" y="80" style="fill:black;baseline-shift:-25%">FROYO b4nny | i55.tf</text>
<rect x="300" y="70" width="215" height="20" rx="0" ry="0" style="fill:blue;fill-opacity:1.00"/>
<text x="524" y="80" style="fill-opacity:1;font-style:italic;font-size:75%;text-anchor:start;baseline-shift:-25%;fill:black">32</text>
<text x="290" y="105" style="fill:black;baseline-shift:-25%">nR TEK36@i55</text>
<rect x="300" y="95" width="155" height="20" rx="0" ry="0" style="fill:blue;fill-opacity:1.00"/>
<text x="464" y="105" style="fill-opacity:1;font-style:italic;font-size:75%;text-anchor:start;baseline-shift:-25%;fill:black">23</text>
<text x="290" y="130" style="fill:black;baseline-shift:-25%">Ascent rando</text>
<rect x="300" y="120" width="128" height="20" rx="0" ry="0" style="fill:blue;fill-opacity:1.00"/>
<text x="437" y="130" style="fill-opacity:1;font-style:italic;font-size:75%;text-anchor:start;baseline-shift:-25%;fill:black">19</text>
<text x="290" y="155" style="fill:black;baseline-shift:-25%">Ascent SaVeyourRrRr!!</text>
<rect x="300" y="145" width="121" height="20" rx="0" ry="0" style="fill:blue;fill-opacity:1.00"/>
<text x="430" y="155" style="fill-opacity:1;font-style:italic;font-size:75%;text-anchor:start;baseline-shift:-25%;fill:black">18</text>
<text x="290" y="180" style="fill:black;baseline-shift:-25%">[R]eason MikeyA @i55AF20</text>
<rect x="300" y="170" width="94" height="20" rx="0" ry="0" style="fill:blue;fill-opacity:1.00"/>
<text x="403" y="180" style="fill-opacity:1;font-style:italic;font-size:75%;text-anchor:start;baseline-shift:-25%;fill:black">14</text>
<text x="290" y="205" style="fill:black;baseline-shift:-25%">[R]eason kaptain @ i55 AF 23</text>
<rect x="300" y="195" width="87" height="20" rx="0" ry="0" style="fill:blue;fill-opacity:1.00"/>
<text x="396" y="205" style="fill-opacity:1;font-style:italic;font-size:75%;text-anchor:start;baseline-shift:-25%;fill:black">13</text>
<text x="290" y="230" style="fill:black;baseline-shift:-25%">FROYO blaze</text>
<rect x="300" y="220" width="87" height="20" rx="0" ry="0" style="fill:blue;fill-opacity:1.00"/>
<text x="396" y="230" style="fill-opacity:1;font-style:italic;font-size:75%;text-anchor:start;baseline-shift:-25%;fill:black">13</text>
<text x="290" y="255" style="fill:black;baseline-shift:-25%">nR Zebbosai</text>
<rect x="300" y="245" width="47" height="20" rx="0" ry="0" style="fill:blue;fill-opacity:1.00"/>
<text x="356" y="255" style="fill-opacity:1;font-style:italic;font-size:75%;text-anchor:start;baseline-shift:-25%;fill:black">7</text>
</g>
<g style="text-anchor:middle;font-size:75%">
<text x="300" y="293" >0</text>
<text x="434" y="293" >20</text>
<text x="569" y="293" >40</text>
<text x="704" y="293" >60</text>
<text x="839" y="293" >80</text>
<text x="974" y="293" >100</text>
</g>
<text x="300" y="340" style="font-style:italic;font-size:150%;text-anchor:start">Average Demoman Kills</text>
<g style="text-anchor:end;fill:red">
<text x="290" y="370" style="fill:black;baseline-shift:-25%">FROYO duwatna</text>
<rect x="300" y="360" width="121" height="20" rx="0" ry="0" style="fill:blue;fill-opacity:1.00"/>
<text x="430" y="370" style="fill-opacity:1;font-style:italic;font-size:75%;text-anchor:start;baseline-shift:-25%;fill:black">18</text>
<text x="290" y="395" style="fill:black;baseline-shift:-25%">Ascent Bdonski</text>
<rect x="300" y="385" width="67" height="20" rx="0" ry="0" style="fill:blue;fill-opacity:1.00"/>
<text x="376" y="395" style="fill-opacity:1;font-style:italic;font-size:75%;text-anchor:start;baseline-shift:-25%;fill:black">10</text>
<text x="290" y="420" style="fill:black;baseline-shift:-25%">nR ryb</text>
<rect x="300" y="410" width="67" height="20" rx="0" ry="0" style="fill:blue;fill-opacity:1.00"/>
<text x="376" y="420" style="fill-opacity:1;font-style:italic;font-size:75%;text-anchor:start;baseline-shift:-25%;fill:black">10</text>
<text x="290" y="445" style="fill:black;baseline-shift:-25%">[R]eason kaidus</text>
<rect x="300" y="435" width="53" height="20" rx="0" ry="0" style="fill:blue;fill-opacity:1.00"/>
<text x="362" y="445" style="fill-opacity:1;font-style:italic;font-size:75%;text-anchor:start;baseline-shift:-25%;fill:black">8</text>
</g>
<g style="text-anchor:middle;font-size:75%">
<text x="300" y="483" >0</text>
<text x="434" y="483" >20</text>
<text x="569" y="483" >40</text>
<text x="704" y="483" >60</text>
<text x="839" y="483" >80</text>
<text x="974" y="483" >100</text>
</g>
<text x="300" y="530" style="font-style:italic;font-size:150%;text-anchor:start">Average Scout Kills</text>
<g style="text-anchor:end;fill:red">
<text x="290" y="560" style="fill:black;baseline-shift:-25%">nR Starkie</text>
<rect x="300" y="550" width="175" height="20" rx="0" ry="0" style="fill:blue;fill-opacity:1.00"/>
<text x="484" y="560" style="fill-opacity:1;font-style:italic;font-size:75%;text-anchor:start;baseline-shift:-25%;fill:black">26</text>
<text x="290" y="585" style="fill:black;baseline-shift:-25%">Ascent Shrugger</text>
<rect x="300" y="575" width="168" height="20" rx="0" ry="0" style="fill:blue;fill-opacity:1.00"/>
<text x="477" y="585" style="fill-opacity:1;font-style:italic;font-size:75%;text-anchor:start;baseline-shift:-25%;fill:black">25</text>
<text x="290" y="610" style="fill:black;baseline-shift:-25%">FROYO cw</text>
<rect x="300" y="600" width="134" height="20" rx="0" ry="0" style="fill:blue;fill-opacity:1.00"/>
<text x="443" y="610" style="fill-opacity:1;font-style:italic;font-size:75%;text-anchor:start;baseline-shift:-25%;fill:black">20</text>
<text x="290" y="635" style="fill:black;baseline-shift:-25%">nR Zebbosai</text>
<rect x="300" y="625" width="94" height="20" rx="0" ry="0" style="fill:blue;fill-opacity:1.00"/>
<text x="403" y="635" style="fill-opacity:1;font-style:italic;font-size:75%;text-anchor:start;baseline-shift:-25%;fill:black">14</text>
<text x="290" y="660" style="fill:black;baseline-shift:-25%">Ascent enigma</text>
<rect x="300" y="650" width="74" height="20" rx="0" ry="0" style="fill:blue;fill-opacity:1.00"/>
<text x="383" y="660" style="fill-opacity:1;font-style:italic;font-size:75%;text-anchor:start;baseline-shift:-25%;fill:black">11</text>
<text x="290" y="685" style="fill:black;baseline-shift:-25%">[R]eason Hafficool * Hallow</text>
<rect x="300" y="675" width="67" height="20" rx="0" ry="0" style="fill:blue;fill-opacity:1.00"/>
<text x="376" y="685" style="fill-opacity:1;font-style:italic;font-size:75%;text-anchor:start;baseline-shift:-25%;fill:black">10</text>
<text x="290" y="710" style="fill:black;baseline-shift:-25%">FROYO ash</text>
<rect x="300" y="700" width="67" height="20" rx="0" ry="0" style="fill:blue;fill-opacity:1.00"/>
<text x="376" y="710" style="fill-opacity:1;font-style:italic;font-size:75%;text-anchor:start;baseline-shift:-25%;fill:black">10</text>
<text x="290" y="735" style="fill:black;baseline-shift:-25%">[R]eason Forsak3n</text>
<rect x="300" y="725" width="60" height="20" rx="0" ry="0" style="fill:blue;fill-opacity:1.00"/>
<text x="369" y="735" style="fill-opacity:1;font-style:italic;font-size:75%;text-anchor:start;baseline-shift:-25%;fill:black">9</text>
</g>
<g style="text-anchor:middle;font-size:75%">
<text x="300" y="773" >0</text>
<text x="434" y="773" >20</text>
<text x="569" y="773" >40</text>
<text x="704" y="773" >60</text>
<text x="839" y="773" >80</text>
<text x="974" y="773" >100</text>
</g>
</g>
</svg>
